<svg version="1.1" xmlns="http://www.w3.org/2000/svg" viewBox="0 0 851.8081516778113 590.4481864148049" width="851.8081516778113" height="590.4481864148049">
  <!-- svg-source:excalidraw -->
  <!-- payload-type:application/vnd.excalidraw+json --><!-- payload-version:2 --><!-- payload-start -->eyJ2ZXJzaW9uIjoiMSIsImVuY29kaW5nIjoiYnN0cmluZyIsImNvbXByZXNzZWQiOnRydWUsImVuY29kZWQiOiJ4nN1aa29cdTAwMWLHXHUwMDE1/e5fIShfzfG8XHUwMDFmXHUwMDAxikKWLFmWXHUwMDFmsqVYsopAWJErac3lw8ulZDkwkKZ161x1MDAxYU5dXHUwMDA3RtG4LlxuXHUwMDAxXHUwMDBlYlx1MDAxNFxymlwiRSo/ivxcdTAwMTmStj/5L/TukuIuXHUwMDFmS1IyKaulXHUwMDAwipxcdTAwMTnO3p2559xz785nJ8bGxv2doj3+8di4fTNtuU7Gs7bHT1x1MDAwNu1btldyXG556KLh91Kh7KXDkZu+Xyx9fOpUzvKytl90rbSNtpxS2XJLfjnjXHUwMDE0ULqQO+X4dq708+D9opWzf1Ys5DK+h6KLpOyM41x1MDAxN7z6tWzXztl5v1x1MDAwNLP/XHUwMDAyvo+NfVx1MDAxNr7HrPPtm344NmyNbGOyvfFiIVx1MDAxZppJsVSYKkF1c4RTmoIr+XZcdTAwMDa618FaO+pcdJrGp9c2MuVpO3O56O4s+1x1MDAxOX9i5qovoquuO6674O+4oUGlXHUwMDAy3EfUV/K9QtZecjL+5v6KxdqTfuVcdTAwMTXKXHUwMDFim3m7XHUwMDE03Dhptlx1MDAxNopW2vF3gjaMm61WfiOcI2q5XHUwMDE5jOBcdTAwMDZxxlx054ZISrGOLlx1MDAxZE7AMKKCSmaY1ITINrsmXHUwMDBiLmxcdTAwMDHY9Vx1MDAxMbGDv8iyNSud3Vx1MDAwMPPymeZcdTAwMTjfs/KlouXBRkXjtlx1MDAxYnesXHUwMDA0XCJCUmK4ppxcdTAwMTJcdTAwMWQt+qbtbGz6waLw6Op2uFx1MDAwN4RSqpnSMbuCa1x1MDAxNmczoSd8XHUwMDFhrbxcdTAwMDc+NFx1MDAxYvwkX3bd+PLlM43la+lYXHUwMDBiOs7EnCqaqlxczFh1XHUwMDBmIIpcbs05XHUwMDE4zFi0+K6Tz7ZP51x1MDAxNtLZLk6zXsj7XHUwMDBizq26s7W0Tls5x1xy1p81m0NcdTAwMDeGVZydnK8+/W1t9+54S9eE62xcdTAwMDT+PO7a662O7jtcdTAwMDCZZrdfKEa9abiU5eRtr3NpXG6es+HkLXcx+bJwp/bZ/c0hiMb2vmRcdTAwMDedQbNcdTAwMGVcdTAwMWJvnzxcdTAwMTgqY17YhkpwQlx1MDAwMZDk0Xr1XHUwMDAzpe1mPCd75cotkj1jLnDn2nwq71x1MDAxY3NQao2AeFx1MDAxNDGYXGJDNIncIJiAXHUwMDEziohRQvJgKYCmeJtlw4OlMMjAS3BKmWRUR/fTXHUwMDFilkpcdTAwMWJNdNQzXCJYNjpcIs+K7btW1myGX7zqzjlZc/nWle1L5zenm3fY4oaW51x1MDAxNbbHmz23T/aa93J2Oc2nzmQvlP21zOWVLUusZudcdTAwMDabt/EpmUyEVlxc8aMjk+qXv6/svai8eHi0ZNLlsiMkXHUwMDEzpttcdTAwMWKbIV5qKTiJaYB+ZOKqi/jM7KJay5ZuTvv+6uzUJT17vMmEXHUwMDE5jSiDXHUwMDAwL6TAlHLeSiaMKyQoYUZcdTAwMDVdVMW6h00mrM4mSkumpFx1MDAxMWwgMpHYXHUwMDEwQrT8oFxc8lx1MDAxZZjvySXcWV05v2pSZ0+nN/PZdTx5i03tXGaJS3iw21x1MDAwNsdcdTAwMTE2Wi759zeVn3bf/urZu1d3g897j6tf3YeW2i//Ub3/R2ivPfqpem+39uRLeK8+/6H64Pt3r353xMTznjZcdTAwMGWBpWzXdYolu1x1MDAxYlFcdTAwMTGI5UlUXHUwMDA1XCJAYmJcdTAwMGWSjSxcdTAwMTedXHUwMDFkXjTT51xu3vzKlFna2sQr7mG4irS1XHUwMDFmlqv6MVVKMSSAXHUwMDE5iFx1MDAwMaaSXGaEfVx1MDAwYlNRLVx1MDAxMIRIISXDXHUwMDA2crPRJSOQ6ID+UlxmaFMyqVxijby9yVQ9xuwzXHUwMDE3XHTyXHUwMDE4rlwiL4kzV1x1MDAxM8njctWa81avqpml6Z3V5dnNK2Ryxt1H+v+4WFx1MDAxYTHBQWyjcXD2IbiewFxm4dtcdTAwMDWVsIkqUUBgQjHDglx1MDAwZZ6OnHdWsnbxRnlCnD03RS9dytIzW8tcdTAwMWZcdTAwMTKV/Vx1MDAxNUSKM6Rcclbg7pRxgrXgLcBkUiCpIVGRmHJccmPUyJApOFx1MDAwMsGiqcRcdTAwMWFcdTAwMTSEXHUwMDE0nbjkXHUwMDFhMSOI0sE4aUxHcqKCmlx1MDAwMeNcdIJcIoLl1PX1m1esxWs5ulBembmQmTpzbd6Pue5cdTAwMTBxXHUwMDFiXHUwMDAxZ99cdTAwMWJpo+V2Mpx7lSRcdTAwMDToOXNcdTAwMDBgxPbL8vzTTj7j5Dfaf2LnM1x0Pa5V8idcdTAwMGK5nOODXHUwMDE581x1MDAwNSfvt49cYuedXGJcdTAwMTC+aVtcdTAwMWRrXHUwMDAxMyf2XHUwMDE1g+latyb6NFx1MDAxNnlq+KX5+dOTXUdL1PBcdTAwMWJKXHUwMDE0M4Rcblx1MDAxMf95ilGEpcGGg4tcdTAwMWKmTL/paMd8LdO1u2K/6Xjv6ZhAQirBsVwijFx1MDAxYq6I6DdhXHUwMDEyWurTIUaNgdvlXHUwMDE44KBcdTAwMThh/aZLWutcdTAwMTPx/4fRPYYmMixcdTAwMDHrXHUwMDE5o/Eo2o9hy1x1MDAxN9bYwtbcTP6G59PS7KKZmlidPOZcZsswXCJcdTAwMTDPXGJR8CZB/7RJXHUwMDFmXHUwMDAznilosFx1MDAxNFpxbfTotFx1MDAwZlUoclx1MDAxOPDDLlx1MDAxNEtb3UrGy8J1koVcYqGDWHB8KPbw5d2DcmlPXHUwMDE0JNYoSCzvbodcdTAwMDDwXHUwMDExNjReXHUwMDA17Fx1MDAwN4FcdTAwMWLbM7lcdTAwMWNezJ9L6YVcdLVISval5aXjXHUwMDBlXHUwMDAxXHLiXHUwMDFm7lx1MDAxNdadSFwihGlBXHUwMDAwU1x1MDAwNMhUXHUwMDAyVVx1MDAwMKWGSFx1MDAxOFx1MDAxOVx1MDAwMjhHUlx1MDAxOcOlhjfCY3lGhFx1MDAwMNHu8Vx1MDAwNDJcdTAwMDBDhVx1MDAxMv3Ufvn6J+eWVq7JOTl5emJenzVydfPWsfJ5XGIsXHUwMDA2wo84gM9HVvWvXHUwMDFjRO6xXzn4pGR7XHR1gDRYXHUwMDFi71x1MDAxY1oloPWa7Xm9iDnPoIl9PX/pXHUwMDE23mJcdTAwMDXdNmgriOLg8DjSov2Q3TtRO5ZcdTAwMDVIwZAylFx1MDAxMKqYxpDZR7G+njxoXHUwMDA0LCs1hplcdTAwMTjortE9zFx1MDAwMIRcIsEpplhDYlx1MDAwZUlbl4eMzCCmXHUwMDE4RC+IworTmOxoXHUwMDAwXHUwMDFkUM4wRL3oXHUwMDFlXHUwMDBmXY9cdTAwMWOy7Fx1MDAwZlx1MDAxZVx1MDAxZYB4XHUwMDFkguyPXHUwMDE51niyPjtARSlcdTAwMDR6ulx1MDAxY1iJXHUwMDAztVx1MDAwMvIgqDlDvsiZjlx1MDAxNEuwYlYxxFx1MDAwNVx1MDAwMppRXFxSkFx1MDAxMTBGddx8S8aRZFTv53stRlHQVZxcdTAwMTGwXGI+SSpYh01cdTAwMTJcdTAwMDWVJchcdTAwMGaZlrCguNOmIec67bQx1HQn2eGDV4erXHUwMDFmUNH3ILxEOS9A6vNcdTAwMDOp+d6l92NJeJBWXCKgOcY5JoYo1Up4nGhEuVx1MDAwMVx1MDAwNUO5UEyaNruGyHdaIVx1MDAwNdlcdTAwMWRgXHUwMDEwMlplSJcyJpNIgNaCtJdcdTAwMDBgXHLuqGJcdTAwMTJCJFiLdXcx/8FcdI9cdTAwMWPqXHTHgIR3XHUwMDAwbsGgXHUwMDE5MUQvsItcdTAwMTih4sl2k1sgeVx1MDAwN3ZRykgqYedcdTAwMGbHd71cdTAwMWZBttqkIeSCZob/XHUwMDEykkpqOmxcIpB3guhcdTAwMDZcdTAwMDfQWmPMmegw6lx1MDAxMIRcdTAwMDdu6dSh8WFoL9Hvg1eqw+WHxXsquYqBXHUwMDE5VjQo6VxmzHu9K+fHkvc4JUhLiomAqKIgZW1cdTAwMTV6jFwiwkKEQDhqeV4y7OfMXHUwMDA2dpgqXHJcdTAwMGVcdTAwMDDSXHUwMDFhPkSSssl7WlwizSngg4L00JTEStb7Oo9cYoiLbFxiR8uGXd5cdTAwMTVYajJKnTcwxaQw4loo0G5cdTAwMTJTw0BqqC46TyDQ9Vx1MDAxY8DIJCWCdOGYgYhvYPVcdFZJkDNcdTAwMTCzXGblVIKBpMMohiBbh16qhSSwnPr/gPdSRIPGZSaoQ1x1MDAxMKZcdTAwMTmOXHUwMDFlXFyF3Vx1MDAxZD7fd8JkJNW7XHUwMDA1glx1MDAwNVSQ2Vx0RoTSOppwICZNqobFXHUwMDBmmraf/2OBhJdcdTAwMDc4/7dh0stcdTAwMWK5yZnzO95cdTAwMDSx5lx1MDAxNjdcdTAwMTZyO1x1MDAxN443kaYoR1x1MDAxYcREUPgjwbG7tlO5koL7Kkogb1x1MDAwMkhBXj0yKpWEIEVcdTAwMDAjUlx1MDAwM3GzWPzqdWSHg1x1MDAxMzIyjFx1MDAxNPmwZVtcdTAwMTVkb+roXHUwMDBlv9RcdTAwMWX84fXTXHUwMDE37149rlx1MDAxZpKtvHjYOEPy9bPqi0e1l7tvfvyhsvdd9c//qT799u3Xv3lz74vXXzyv7D2q3r9Tffis9uSvrLL3t9qTu9VcdTAwMDf3Ki+/qezde/3417W/7FZe/ni0J2SO5EZGeNiPJFx1MDAxZugnXFxrUGBcdTAwMDepo+vi2XNzKTN5fnZ5KXV9fc2bMDvH/LhcdTAwMWZRXHUwMDEwklxyY1x1MDAwMWgh04ifpFx1MDAwZqlDKMhNsYZcdTAwMTChKaR1ydmnjVx1MDAxOWHkPU70Y4GwYYEpXHUwMDE48p5uJ/o5Q8TEX1x1MDAxZFx1MDAwZpJcdTAwMDRcYkVCP1x1MDAxY5EooF/IMt+XSGJO2e9cdTAwMTTdT3fe7r5886/vKs+/byApgtE+XHUwMDEy3726//arf1b2Pq/9fbf2+beVl3+q7d054pN0Q7BzXHUwMDEwXHUwMDFhYLxOXHUwMDAzJ1x1MDAxYVwiZdwqXHUwMDE2XHUwMDE3fNiiplBcdTAwMDSfcDKNdY5MXHUwMDFl33Ls7dOdLvvRevhcbp6nhNRcdTAwMTJg2Fx1MDAwZUX67Vx1MDAxM7f/XHUwMDBiXHUwMDEwbZiYIn0=<!-- payload-end -->
  <defs>
    <style class="style-fonts">
      @font-face {
        font-family: "Virgil";
        src: url("https://file%2B.vscode-resource.vscode-cdn.net/home/magictable/.vscode/extensions/pomdtr.excalidraw-editor-3.7.4/public//dist/excalidraw-assets/Virgil.woff2");
      }
      @font-face {
        font-family: "Cascadia";
        src: url("https://file%2B.vscode-resource.vscode-cdn.net/home/magictable/.vscode/extensions/pomdtr.excalidraw-editor-3.7.4/public//dist/excalidraw-assets/Cascadia.woff2");
      }
      @font-face {
        font-family: "Assistant";
        src: url("https://file%2B.vscode-resource.vscode-cdn.net/home/magictable/.vscode/extensions/pomdtr.excalidraw-editor-3.7.4/public//dist/excalidraw-assets/Assistant-Regular.woff2");
      }
    </style>
    
  </defs>
  <rect x="0" y="0" width="851.8081516778113" height="590.4481864148049" fill="#ffffff"></rect><g transform="translate(233.0110645668546 10) rotate(0 37.57810974121094 12)"><text x="0" y="0" font-family="Cascadia, Segoe UI Emoji" font-size="20px" fill="#1e1e1e" text-anchor="start" style="white-space: pre;" direction="ltr" dominant-baseline="text-before-edge">ICP备案</text></g><g transform="translate(272.3296386665519 291.94492518469076) rotate(0 29.999977111816406 12)"><text x="0" y="0" font-family="Cascadia, Segoe UI Emoji" font-size="20px" fill="#1e1e1e" text-anchor="start" style="white-space: pre;" direction="ltr" dominant-baseline="text-before-edge">华为云</text></g><g transform="translate(481.8083653008582 227.26875787621142) rotate(0 179.9998931884766 12)"><text x="0" y="0" font-family="Cascadia, Segoe UI Emoji" font-size="20px" fill="#1e1e1e" text-anchor="start" style="white-space: pre;" direction="ltr" dominant-baseline="text-before-edge">工信部（工业和信息化部政务服务平台）</text></g><g stroke-opacity="0" fill-opacity="0" stroke-linecap="round" transform="translate(10 165.59292694155457) rotate(0 58.378661581835615 58.378661581835615)"><path d="M52.74 0.46 C61.29 -0.78, 73.8 2.15, 82.19 5.55 C90.57 8.94, 97.33 14.12, 103.06 20.81 C108.78 27.51, 114.8 36.8, 116.55 45.73 C118.3 54.66, 116.4 65.58, 113.56 74.39 C110.71 83.21, 105.67 92.16, 99.5 98.61 C93.34 105.06, 84.95 110.12, 76.57 113.11 C68.19 116.1, 58.12 118.06, 49.22 116.56 C40.32 115.05, 30.33 109.65, 23.16 104.1 C15.99 98.55, 9.87 91.09, 6.19 83.24 C2.5 75.38, 0.61 66.11, 1.04 56.98 C1.47 47.85, 4.5 36.41, 8.77 28.46 C13.03 20.51, 18.99 14.07, 26.64 9.28 C34.29 4.49, 49.47 1.18, 54.66 -0.3 C59.86 -1.77, 57.65 -0.73, 57.8 0.44 M59.2 -1.19 C67.79 -2.13, 77.45 1.93, 85.61 6.43 C93.77 10.93, 102.82 18.09, 108.15 25.8 C113.49 33.5, 116.67 43.49, 117.63 52.65 C118.58 61.81, 117.33 72.26, 113.87 80.75 C110.41 89.25, 103.82 97.69, 96.88 103.63 C89.94 109.57, 81.07 114.62, 72.22 116.41 C63.37 118.21, 52.8 117.12, 43.79 114.4 C34.78 111.67, 25.01 106.23, 18.16 100.08 C11.31 93.92, 5.56 86.02, 2.69 77.48 C-0.18 68.94, -0.52 57.97, 0.92 48.85 C2.37 39.74, 6.02 29.74, 11.35 22.8 C16.68 15.86, 24.94 11.13, 32.92 7.21 C40.89 3.28, 54.99 0.48, 59.18 -0.76 C63.38 -2.01, 57.88 -1.26, 58.07 -0.27" stroke="#1e1e1e" stroke-width="1" fill="none"></path></g><g stroke-linecap="round"><g transform="translate(39.68614392722293 245.43327665675636) rotate(0 27.17391304347825 -24.197589173934944)"><path d="M-0.19 0.71 C0.54 -4.64, 0.54 -25.2, 4.97 -33.2 C9.41 -41.2, 19.39 -46.79, 26.42 -47.29 C33.44 -47.79, 42.61 -43.74, 47.13 -36.22 C51.66 -28.7, 61.62 -8.02, 53.57 -2.16 C45.52 3.7, 7.8 -1.24, -1.17 -1.07 M-1.75 0.04 C-0.72 -5.1, 2.5 -24.08, 7.1 -32.26 C11.7 -40.44, 19.63 -48.52, 25.83 -49.05 C32.02 -49.59, 39.35 -42.83, 44.27 -35.46 C49.19 -28.09, 62.79 -10.89, 55.35 -4.82 C47.91 1.26, 8.81 0.09, -0.37 0.98" stroke="#1e1e1e" stroke-width="1" fill="none"></path></g></g><mask></mask><g stroke-linecap="round" transform="translate(53.431907900464125 171.79962401937385) rotate(0 13.913043478260875 12.173913043478308)"><path d="M14.6 -0.3 C17.44 -0.43, 21.94 1.08, 24.06 2.92 C26.17 4.77, 27.15 8.12, 27.3 10.77 C27.45 13.43, 26.58 16.74, 24.97 18.87 C23.35 21, 20.38 22.76, 17.62 23.55 C14.85 24.33, 11.08 24.66, 8.37 23.58 C5.66 22.49, 2.62 19.45, 1.34 17.05 C0.06 14.65, -0.13 11.53, 0.69 9.16 C1.5 6.79, 3.74 4.39, 6.22 2.81 C8.71 1.23, 14.12 0.08, 15.59 -0.32 C17.07 -0.71, 15.24 0.2, 15.07 0.43 M16.05 0.1 C18.91 0.3, 21.64 2.33, 23.57 4.11 C25.5 5.9, 27.45 8.32, 27.63 10.8 C27.81 13.28, 26.31 16.82, 24.66 18.99 C23.01 21.16, 20.46 23.12, 17.73 23.82 C15.01 24.51, 10.97 24.24, 8.32 23.16 C5.67 22.09, 3.07 19.69, 1.83 17.35 C0.59 15.02, 0.08 11.6, 0.89 9.14 C1.71 6.68, 4.23 4.12, 6.7 2.58 C9.17 1.04, 14.31 0.37, 15.71 -0.11 C17.11 -0.59, 15.22 -0.49, 15.1 -0.3" stroke="#1e1e1e" stroke-width="1" fill="none"></path></g><g transform="translate(45.004977929018196 251.14355302740663) rotate(0 22.33997344970703 12.5)"><text x="22.33997344970703" y="0" font-family="Virgil, Segoe UI Emoji" font-size="20px" fill="#1e1e1e" text-anchor="middle" style="white-space: pre;" direction="ltr" dominant-baseline="text-before-edge">User</text></g><g stroke-linecap="round"><g transform="translate(137.36903238869886 248.19204073226993) rotate(0 64.77101040942604 19.68674008487136)"><path d="M-0.62 -0.48 C20.77 5.87, 106.54 31.85, 128.35 38.45 M1.26 -1.77 C22.99 4.67, 109.01 32.5, 130.43 39.5" stroke="#1e1e1e" stroke-width="2" fill="none"></path></g><g transform="translate(137.36903238869886 248.19204073226993) rotate(0 64.77101040942604 19.68674008487136)"><path d="M100.45 40.56 C108.74 38.4, 117.08 41.19, 130.43 39.5 M100.45 40.56 C108.75 40.21, 116.48 39.95, 130.43 39.5" stroke="#1e1e1e" stroke-width="2" fill="none"></path></g><g transform="translate(137.36903238869886 248.19204073226993) rotate(0 64.77101040942604 19.68674008487136)"><path d="M106.78 21.04 C113.21 24.76, 119.63 33.47, 130.43 39.5 M106.78 21.04 C113.24 26.1, 119.22 31.22, 130.43 39.5" stroke="#1e1e1e" stroke-width="2" fill="none"></path></g></g><mask></mask><g stroke-linecap="round"><g transform="translate(339.0842636698115 297.9966238776209) rotate(0 93.87018257043957 -18.277953456304516)"><path d="M-0.03 -0.78 C31.19 -6.76, 156.04 -30.9, 187.18 -36.79 M-1.51 1.43 C29.52 -4.29, 154.15 -28.77, 185.94 -35.37" stroke="#1e1e1e" stroke-width="2" fill="none"></path></g><g transform="translate(339.0842636698115 297.9966238776209) rotate(0 93.87018257043957 -18.277953456304516)"><path d="M-1.4 -0.89 L10.66 -8.35 L13.68 3.14 L0.71 -0.13" stroke="none" stroke-width="0" fill="#1e1e1e" fill-rule="evenodd"></path><path d="M-0.03 -0.78 C2.56 -4, 6.73 -7.01, 12.12 -9.57 M-0.03 -0.78 C3.53 -3.6, 7.97 -6.24, 12.12 -9.57 M12.12 -9.57 C13.52 -4.93, 13.39 -2.25, 14.51 2.88 M12.12 -9.57 C13.29 -6.64, 12.94 -3.98, 14.51 2.88 M14.51 2.88 C9.78 0.95, 5.27 0.45, -0.03 -0.78 M14.51 2.88 C8.78 1.02, 3.68 -0.58, -0.03 -0.78 M-0.03 -0.78 C-0.03 -0.78, -0.03 -0.78, -0.03 -0.78 M-0.03 -0.78 C-0.03 -0.78, -0.03 -0.78, -0.03 -0.78" stroke="#1e1e1e" stroke-width="2" fill="none"></path></g><g transform="translate(339.0842636698115 297.9966238776209) rotate(0 93.87018257043957 -18.277953456304516)"><path d="M160.32 -19.75 C166.51 -25.17, 174.79 -30.3, 185.94 -35.37 M160.32 -19.75 C168.3 -24.79, 177.43 -29.63, 185.94 -35.37" stroke="#1e1e1e" stroke-width="2" fill="none"></path></g><g transform="translate(339.0842636698115 297.9966238776209) rotate(0 93.87018257043957 -18.277953456304516)"><path d="M156.28 -39.87 C163.48 -39.5, 172.92 -38.84, 185.94 -35.37 M156.28 -39.87 C165.48 -38.05, 175.98 -36.04, 185.94 -35.37" stroke="#1e1e1e" stroke-width="2" fill="none"></path></g></g><mask></mask><g stroke-linecap="round"><g transform="translate(505.43893499934296 211.8833064399963) rotate(0 -198.26391828521392 -43.42143664924109)"><path d="M-0.73 -0.52 C-30.83 -15.03, -113.62 -81.1, -179.67 -86.84 C-245.73 -92.58, -360.97 -43.71, -397.06 -34.96 M1.09 1.82 C-29.2 -12.51, -113.79 -79.41, -180.32 -85.3 C-246.86 -91.18, -362.19 -41.65, -398.11 -33.5" stroke="#1e1e1e" stroke-width="2" fill="none"></path></g><g transform="translate(505.43893499934296 211.8833064399963) rotate(0 -198.26391828521392 -43.42143664924109)"><path d="M-2.72 1.02 L-14.81 -0.51 L-10.8 -11.67 L-2.64 -1.2" stroke="none" stroke-width="0" fill="#1e1e1e" fill-rule="evenodd"></path><path d="M-0.73 -0.52 C-7.02 -0.41, -11.99 -2.3, -15.67 -1.87 M-0.73 -0.52 C-5.22 -1.07, -9.92 -0.93, -15.67 -1.87 M-15.67 -1.87 C-13.37 -6.42, -11.17 -9.1, -9.3 -12.83 M-15.67 -1.87 C-13.73 -5.44, -11.61 -9.39, -9.3 -12.83 M-9.3 -12.83 C-6.24 -7.41, -1.65 -4.2, -0.73 -0.52 M-9.3 -12.83 C-6.81 -7.62, -2.54 -3.28, -0.73 -0.52 M-0.73 -0.52 C-0.73 -0.52, -0.73 -0.52, -0.73 -0.52 M-0.73 -0.52 C-0.73 -0.52, -0.73 -0.52, -0.73 -0.52" stroke="#1e1e1e" stroke-width="2" fill="none"></path></g><g transform="translate(505.43893499934296 211.8833064399963) rotate(0 -198.26391828521392 -43.42143664924109)"><path d="M-374.32 -51.78 C-384.12 -44.08, -392.22 -39.03, -398.11 -33.5 M-374.32 -51.78 C-381.51 -46.01, -389.02 -39.35, -398.11 -33.5" stroke="#1e1e1e" stroke-width="2" fill="none"></path></g><g transform="translate(505.43893499934296 211.8833064399963) rotate(0 -198.26391828521392 -43.42143664924109)"><path d="M-368.14 -32.21 C-380.31 -31.93, -390.74 -34.26, -398.11 -33.5 M-368.14 -32.21 C-377.37 -32.7, -386.87 -32.35, -398.11 -33.5" stroke="#1e1e1e" stroke-width="2" fill="none"></path></g></g><mask></mask><g transform="translate(58.7709256490009 503.71954756811135) rotate(0 305.8592834472656 12)"><text x="0" y="0" font-family="Cascadia, Segoe UI Emoji" font-size="20px" fill="#1e1e1e" text-anchor="start" style="white-space: pre;" direction="ltr" dominant-baseline="text-before-edge">提示：备案云服务器应满足中国大陆节点且包周期3个月及以上的条件</text></g><g transform="translate(101.06625150741297 537.2481864148049) rotate(0 352.5469665527344 21.600000000000023)"><text x="0" y="0" font-family="Cascadia, Segoe UI Emoji" font-size="36px" fill="#e03131" text-anchor="start" style="white-space: pre;" direction="ltr" dominant-baseline="text-before-edge">必须购买3个月以上的服务器，钱一次性付清</text></g></svg>